<svg id="Capa_1" enable-background="new 0 0 512 512" height="512" viewBox="0 0 512 512" width="512" xmlns="http://www.w3.org/2000/svg"><g><path d="m468.384 266.986h-49.981v-14.581c13.809-10.364 24.023-24.601 25.277-41.623 14.906-2.459 26.31-15.436 26.31-31.026v-1.409c0-11.236-9.142-20.378-20.379-20.378h-2.042l.186-2.529c1.377-18.701-5.153-37.306-17.917-51.044-12.763-13.737-30.837-21.616-49.588-21.616-18.752 0-36.827 7.879-49.59 21.617-12.764 13.738-19.294 32.342-17.916 51.044l.186 2.528h-2.042c-11.237 0-20.379 9.142-20.379 20.378v1.409c0 15.591 11.405 28.568 26.31 31.027 1.25 16.989 11.437 31.235 25.277 41.623v14.581h-40.452c.722-9.804 1.868-25.364 2.592-35.208.984-13.363-3.682-26.658-12.802-36.475s-22.036-15.447-35.437-15.447c-13.4 0-26.316 5.63-35.437 15.447-9.12 9.817-13.787 23.112-12.802 36.474.045.607 1.323 17.964 2.593 35.208h-14.673v-56.291c14.659-2.664 25.809-15.524 25.809-30.939v-1.409c0-11.236-9.142-20.378-20.378-20.378h-2.042l.186-2.529c1.377-18.701-5.153-37.305-17.917-51.043s-30.835-21.617-49.586-21.617-36.826 7.879-49.589 21.617-19.293 32.342-17.917 51.042c.047.633.175 2.368.187 2.531h-2.042c-11.237 0-20.378 9.142-20.378 20.378v1.409c0 15.416 11.15 28.276 25.809 30.939v56.291h-24.204c-24.05-.001-43.616 19.565-43.616 43.615v104.033c0 8.042 6.542 14.584 14.584 14.584h482.831c8.042 0 14.585-6.542 14.585-14.584v-51.532c0-4.142-3.357-7.5-7.5-7.5s-7.5 3.358-7.5 7.5v51.117h-26.829v-77.992c0-4.142-3.357-7.5-7.5-7.5s-7.5 3.358-7.5 7.5v77.992h-107.303v-77.26c0-17.658-14.365-32.023-32.023-32.023h-31.531v-6.426c5.636-4.423 10.62-9.997 13.76-16.525h29.512c8.806 21.36 30.038 35.846 53.47 35.846s44.664-14.486 53.469-35.846h33.858c15.779 0 28.616 12.837 28.616 28.616v17.501c0 4.142 3.357 7.5 7.5 7.5s7.5-3.358 7.5-7.5v-17.501c.001-24.05-19.565-43.616-43.615-43.616zm-182.681 5.602c-4.097 13.259-21.981 22.553-29.703 22.553-7.727 0-25.627-9.305-29.709-22.576-.036-.137-.077-.273-.12-.407-.346-1.218-.577-2.468-.671-3.747l-1.937-26.301c17.643-18.606 47.275-18.56 64.874 0l-1.936 26.301c-.094 1.273-.322 2.518-.666 3.73-.049.146-.093.296-.132.447zm-29.703-77.732c17.326 0 30.662 12.908 32.993 28.244-19.64-13.036-45.738-13.44-65.986 0 2.332-15.339 15.672-28.244 32.993-28.244zm-150.112 47.872c-.346-.288-.719-.545-1.114-.767-10.974-7.711-20.52-19.049-21.478-32.053-3.622-49.175-3.3-44.809-3.323-45.122h23.024c20.176 0 39.355-6.493 55.15-18.491 1.613 13.248 11.791 23.889 24.812 26.205-.565 7.675-1.826 24.797-2.755 37.408-.958 13.005-10.506 24.344-21.481 32.055-.392.221-.763.477-1.107.763-9.163 6.184-19.142 9.833-25.865 9.833-6.724.001-16.701-3.648-25.863-9.831zm64.014 9.678c3.846-2.887 7.502-6.15 10.779-9.761v24.341h-10.779zm36.588-74.059v1.409c0 6.837-4.194 12.713-10.144 15.19l1.618-21.977h3.147c2.967 0 5.379 2.413 5.379 5.378zm-74.74-80.567c14.811 0 28.52 5.976 38.6 16.826 10.081 10.851 15.034 24.961 13.946 39.731l-.224 3.042c-6.429-1.838-11.149-7.768-11.149-14.779v-8.609c0-3.78-2.257-7.158-5.75-8.604-3.491-1.446-7.476-.653-10.147 2.019-14.432 14.432-33.62 22.379-54.029 22.379h-23.937c.287-28.01 23.075-52.005 52.69-52.005zm-74.74 81.976v-1.409c0-2.965 2.413-5.378 5.378-5.378h3.147l1.619 21.977c-5.95-2.477-10.144-8.353-10.144-15.19zm25.809 62.889c3.278 3.61 6.933 6.874 10.779 9.761v14.581h-10.779zm250.049 94.315v77.26h-15.509v-49.746c0-4.142-3.357-7.5-7.5-7.5s-7.5 3.358-7.5 7.5v49.746h-91.106v-49.746c0-4.142-3.358-7.5-7.5-7.5s-7.5 3.358-7.5 7.5v49.746h-17.122v-8.677c0-4.142-3.358-7.5-7.5-7.5s-7.5 3.358-7.5 7.5v8.677h-105.689v-77.992c0-4.142-3.358-7.5-7.5-7.5s-7.5 3.358-7.5 7.5v77.992h-28.442v-103.618c0-15.779 12.837-28.616 28.616-28.616h35.462c4.828 11.8 13.411 21.658 24.604 28.125 3.58 2.068 8.17.851 10.246-2.742 2.072-3.586.845-8.174-2.742-10.246-6.42-3.709-11.681-8.921-15.389-15.137 7.352 0 12.8-5.868 12.8-12.668v-7.892c8.504 3.993 16.809 6.134 23.152 6.134s14.648-2.141 23.152-6.134v7.892c0 6.985 5.683 12.668 12.668 12.668h1.708c-6.27 10.406-16.865 17.95-29.021 20.156-4.075.74-6.779 4.644-6.04 8.719.737 4.06 4.625 6.781 8.719 6.04 19.288-3.501 35.667-16.945 43.087-34.915h27.903c3.14 6.528 8.124 12.101 13.76 16.525v6.426h-31.531c-17.658 0-32.024 14.366-32.024 32.023v33.582c0 4.142 3.358 7.5 7.5 7.5s7.5-3.358 7.5-7.5v-33.582c0-9.387 7.637-17.023 17.024-17.023h22.508c6.697 14.572 21.549 24.34 37.884 24.34 16.334 0 31.187-9.769 37.883-24.34h21.414c9.388 0 17.025 7.636 17.025 17.023zm-55.698-17.484c-4.973 6.04-12.512 9.801-20.622 9.801-8.242 0-15.893-3.884-20.861-10.096 4.094-1.606 7-5.597 7-10.253v-1.771c4.919 1.951 9.588 2.984 13.313 2.984s8.395-1.033 13.313-2.984v1.771c0 4.974 3.318 9.188 7.857 10.548zm172.441-146.507c2.966 0 5.379 2.413 5.379 5.378v1.409c0 6.837-4.194 12.713-10.144 15.19 2.14-29.062 1.491-20.256 1.618-21.977zm-107.962-58.362c10.081-10.851 23.789-16.827 38.601-16.827 30.123 0 53.911 25.066 52.645 54.862-2.927-5.042-4.203-8.535-6.096-13.314-2.994-7.557-9.504-13.185-17.413-15.056-7.912-1.872-16.252.244-22.314 5.657l-6.821 6.09-6.821-6.09c-6.062-5.414-14.401-7.528-22.314-5.657-7.909 1.871-14.419 7.5-17.413 15.056-1.906 4.81-3.156 8.25-6.096 13.314-.605-14.151 4.348-27.6 14.042-38.035zm-36.139 65.149v-1.409c0-2.965 2.413-5.378 5.379-5.378h3.147c.547 7.456.422 5.736 1.618 21.977-5.95-2.477-10.144-8.353-10.144-15.19zm26.286 30.153c-.966-13.119-1.609-21.857-2.542-34.519 7.236-7.722 12.88-16.625 16.795-26.503l1.598-4.032c2.528-6.378 10.634-8.341 15.792-3.736l7.648 6.83c5.225 4.666 13.103 4.666 18.325 0l7.649-6.83c5.13-4.58 13.25-2.679 15.792 3.736l1.598 4.032c3.915 9.878 9.559 18.781 16.795 26.503-.945 12.83-1.596 21.678-2.542 34.519-.958 13.006-10.508 24.346-21.485 32.058-.39.22-.758.474-1.1.758-9.164 6.185-19.144 9.836-25.869 9.836-6.724 0-16.702-3.65-25.866-9.834-.344-.286-.714-.541-1.107-.762-10.975-7.713-20.523-19.052-21.481-32.056zm49.261 92.924c-15.179 0-29.111-8.206-36.727-20.846 7.267 0 12.768-5.827 12.768-12.668v-7.893c8.504 3.993 16.809 6.134 23.152 6.134s14.648-2.141 23.152-6.134v7.893c0 6.985 5.683 12.668 12.668 12.668h1.712c-7.615 12.639-21.547 20.846-36.725 20.846z"/></g></svg>